<?xml version="1.0" encoding="utf-8"?>
<!-- Generator: Adobe Illustrator 27.6.1, SVG Export Plug-In . SVG Version: 6.00 Build 0)  -->
<svg version="1.1" id="Ebene_1" xmlns="http://www.w3.org/2000/svg" xmlns:xlink="http://www.w3.org/1999/xlink" x="0px" y="0px"
	 viewBox="0 0 50 50" style="enable-background:new 0 0 50 50;" xml:space="preserve">
<style type="text/css">
	.st0{fill:#282828;}
	.st1{fill:#FFFFFF;}
</style>
<path class="st0" d="M2,0h46c1.1,0,2,0.9,2,2v46c0,1.1-0.9,2-2,2H2c-1.1,0-2-0.9-2-2V2C0,0.9,0.9,0,2,0z"/>
<g>
	<path class="st1" d="M6.5,16.7c1.3-1.3,2.7-2.3,4.3-3c1.6-0.6,3.3-1,5-1c1.7,0,3.3,0.3,4.9,1c1.6,0.6,3.1,1.6,4.3,3l3.2,3.2l-6,6.1
		l6,6L25,35.3c-1.3,1.3-2.7,2.3-4.4,2.9c-1.6,0.6-3.2,1-4.9,1c-1.7,0-3.4-0.3-5-1c-1.6-0.6-3-1.6-4.3-2.9C5.2,34,4.2,32.5,3.6,31
		c-0.6-1.6-0.9-3.2-0.9-5c0-1.6,0.3-3.3,0.9-4.9C4.2,19.4,5.2,18,6.5,16.7z M7,17.2c-1.2,1.2-2.1,2.6-2.7,4.1
		c-0.6,1.5-0.9,3.1-0.9,4.7c0,1.7,0.3,3.2,0.9,4.7c0.6,1.5,1.5,2.8,2.7,4c1.2,1.2,2.6,2.1,4.1,2.7c1.5,0.6,3.1,0.9,4.7,0.9
		c1.6,0,3.1-0.3,4.6-0.9c1.5-0.6,2.9-1.5,4.1-2.7l2.7-2.7l-5.3-5.4L19,29.3c-0.4,0.5-0.9,0.8-1.5,1.1c-0.6,0.2-1.2,0.3-1.8,0.3
		c-1.3,0-2.4-0.5-3.4-1.4c-0.5-0.5-0.9-1-1.1-1.6c-0.2-0.6-0.3-1.2-0.3-1.9c0-0.6,0.1-1.1,0.3-1.7c0.2-0.6,0.6-1,1-1.5
		c1-1,2.1-1.5,3.4-1.5c1.2,0,2.3,0.5,3.4,1.4h-0.1l2.7,2.7l5.4-5.5l-2.7-2.7v0.1c-1.2-1.2-2.6-2.1-4.1-2.8c-1.5-0.6-3.1-1-4.6-1
		c-1.6,0-3.2,0.3-4.7,1C9.6,15.1,8.2,16,7,17.2L7,17.2z M7.6,17.8c1.1-1.2,2.4-2.1,3.8-2.6c1.4-0.6,2.9-0.9,4.4-0.9
		c1.4,0,2.9,0.3,4.3,0.9c1.4,0.6,2.7,1.4,3.8,2.6l2.2,2.1l-4.3,4.3l-2.2-2.1c-1.1-1.1-2.4-1.6-3.9-1.6c-1.5,0-2.8,0.6-3.9,1.7
		c-0.5,0.5-0.9,1.1-1.2,1.7c-0.3,0.6-0.4,1.3-0.4,2c0,0.8,0.1,1.5,0.4,2.2c0.3,0.7,0.7,1.3,1.2,1.8c1.1,1.1,2.4,1.7,3.9,1.7
		c0.7,0,1.4-0.1,2.1-0.4c0.6-0.3,1.2-0.7,1.8-1.3l2.2-2.2l4.3,4.3l-2.2,2.2c-1.1,1.1-2.4,2-3.8,2.6c-1.4,0.6-2.9,0.9-4.3,0.9
		c-1.5,0-3-0.3-4.4-0.9c-1.4-0.6-2.7-1.5-3.8-2.6c-1.1-1.1-2-2.4-2.5-3.8C4.5,29,4.2,27.5,4.2,26c0-1.4,0.3-2.9,0.8-4.3
		C5.6,20.2,6.4,18.9,7.6,17.8z M15.8,30c0.5,0,1-0.1,1.5-0.3c0.5-0.2,0.9-0.5,1.2-0.9l3-2.8l-2.9-2.9v0.1c-0.8-0.8-1.7-1.2-2.8-1.2
		c-1.1,0-2.1,0.4-2.9,1.3c-0.7,0.7-1.1,1.6-1.1,2.6c0,1.2,0.4,2.2,1.1,3C13.7,29.6,14.6,30,15.8,30z"/>
	<path class="st1" d="M47,12.7V22h-4.4c-1,0-1.9,0.4-2.6,1.1c-0.7,0.8-1.1,1.7-1.1,2.8v13.2h-8.6V25.9c0-1.8,0.3-3.5,1-5.1
		c0.6-1.6,1.5-3,2.7-4.2c1.1-1.2,2.4-2.1,3.9-2.9c1.5-0.7,3.1-1.1,4.8-1.1H47z M42.6,13.5c-1.6,0-3.1,0.3-4.5,1
		c-1.4,0.7-2.6,1.6-3.7,2.7c-1.1,1.1-1.9,2.4-2.5,3.9c-0.6,1.5-0.9,3.1-0.9,4.8v12.5h7.2V25.9c0-1.3,0.4-2.4,1.3-3.3
		c0.9-0.9,1.9-1.3,3.1-1.3h3.6v-7.8H42.6z M45.6,14.3v6.2h-3c-1.4,0-2.7,0.5-3.6,1.6c-1,1-1.5,2.3-1.5,3.8v11.7h-5.9V25.9
		c0-1.6,0.3-3.1,0.9-4.5c0.6-1.4,1.4-2.6,2.4-3.7c1-1.1,2.2-1.9,3.5-2.5c1.3-0.6,2.7-0.9,4.2-0.9H45.6z"/>
</g>
</svg>
