<?xml version="1.0" encoding="UTF-8"?><svg id="Ebene_2" xmlns="http://www.w3.org/2000/svg" viewBox="0 0 26 32.37"><defs><style>.cls-1{fill:#fff;}</style></defs><g id="Icons"><g id="Map_pin"><path class="cls-1" d="m13,0C5.83,0,0,5.83,0,13c0,6.18,6.7,13.6,12.33,18.74l.69.63.68-.65c6.23-5.99,12.31-12.37,12.31-18.72C26,5.83,20.17,0,13,0Zm-.02,29.62C5.89,23,2,17.12,2,13,2,6.93,6.93,2,13,2s11,4.93,11,11c0,5.35-5.34,11.13-11.02,16.62Z"/><path class="cls-1" d="m13,8c-2.76,0-5,2.24-5,5s2.24,5,5,5,5-2.24,5-5-2.24-5-5-5Zm0,8c-1.65,0-3-1.35-3-3s1.35-3,3-3,3,1.35,3,3-1.35,3-3,3Z"/></g></g></svg>