<?xml version="1.0" encoding="UTF-8"?><svg id="Ebene_2" xmlns="http://www.w3.org/2000/svg" viewBox="0 0 93.14 88.07"><defs><style>.cls-1{fill:#fff;}</style></defs><g id="Layer_1"><path class="cls-1" d="m93.11,82.65c-3.48-23.74-6.96-47.47-10.44-71.21-.5-3.43-1.01-6.86-1.51-10.28-.14-.94-1.22-1.24-1.99-1.13-7.75,1.14-15.5,2.27-23.25,3.41-.94.14-1.24,1.22-1.13,1.99,1.52,10.33,3.03,20.67,4.55,31-7.3-7.03-14.61-14.07-21.91-21.1-2.5-2.4-4.99-4.81-7.49-7.21-.62-.6-1.67-.64-2.29,0-5.44,5.64-10.87,11.29-16.3,16.93-.6.62-.64,1.67,0,2.29,1.36,1.31,2.73,2.63,4.09,3.94-1.12-.5-2.23-1.01-3.35-1.51-.73-.33-1.83-.28-2.21.58-3.23,7.14-6.45,14.28-9.68,21.42-.33.73-.28,1.83.58,2.21,3.92,1.77,7.84,3.54,11.76,5.31-2.49-.03-4.98-.06-7.46-.09-.88,0-1.61.75-1.62,1.62-.09,7.83-.18,15.67-.28,23.5,0,.88.75,1.61,1.62,1.62,20.63.24,41.27.49,61.9.73.01.08.03.17.04.25.14.94,1.22,1.24,1.99,1.13,1.88-.28,3.76-.55,5.64-.83.49.22.98.44,1.47.66.73.33,1.83.28,2.21-.58.08-.17.15-.33.23-.5,2.96.04,5.92.07,8.88.1.88.01,1.61-.75,1.62-1.62,0-.06,0-.12,0-.18,1.07-.16,2.14-.31,3.21-.47.94-.14,1.26-.87,1.14-1.59,0-.13,0-.26-.01-.4ZM14.77,26.14c4.69-4.87,9.37-9.73,14.06-14.6,10.42,10.04,20.84,20.07,31.26,30.11,1.6,10.92,3.2,21.84,4.81,32.77-14.6-14.06-29.19-28.11-43.79-42.17-2.11-2.04-4.23-4.07-6.34-6.11Zm-2.89,29.32c-2.72-1.23-5.44-2.46-8.16-3.69,2.78-6.16,5.57-12.32,8.35-18.48,3.42,1.55,6.85,3.09,10.27,4.64,13.61,13.11,27.22,26.22,40.84,39.33.83.8,1.66,1.6,2.49,2.4,0,.04.01.08.02.11-17.94-8.1-35.87-16.21-53.81-24.31Zm3.31,27.36c-2.92-.04-5.84-.07-8.76-.1.08-6.75.16-13.51.24-20.26,4.41.05,8.81.1,13.22.16,15.35,6.94,30.71,13.87,46.06,20.81-16.92-.2-33.84-.4-50.76-.6Zm54.46,1.84c-3.41-23.27-6.83-46.54-10.24-69.82-.42-2.83-.83-5.67-1.25-8.5,6.69-.98,13.38-1.96,20.08-2.94,3.41,23.27,6.83,46.54,10.24,69.82.41,2.83.83,5.66,1.25,8.5-6.69.98-13.38,1.96-20.08,2.95Z"/><path class="cls-1" d="m78.5,69.31c-2.99,0-5.42,2.43-5.42,5.42s2.43,5.42,5.42,5.42,5.42-2.43,5.42-5.42-2.43-5.42-5.42-5.42Zm0,9.12c-2.04,0-3.7-1.66-3.7-3.7s1.66-3.7,3.7-3.7,3.7,1.66,3.7,3.7-1.66,3.7-3.7,3.7Z"/></g></svg>