<?xml version="1.0" encoding="utf-8"?>
<!-- Generator: Adobe Illustrator 27.7.0, SVG Export Plug-In . SVG Version: 6.00 Build 0)  -->
<svg version="1.1" id="Ebene_1" xmlns="http://www.w3.org/2000/svg" xmlns:xlink="http://www.w3.org/1999/xlink" x="0px" y="0px"
	 viewBox="0 0 88.1 24" style="enable-background:new 0 0 88.1 24;" xml:space="preserve">
<style type="text/css">
	.st0{fill:#FFFFFF;}
	.st1{enable-background:new    ;}
</style>
<g>
	<path class="st0" d="M10.5,4.4c1-1.1,2.2-1.9,3.5-2.4s2.7-0.8,4.1-0.8s2.7,0.3,4,0.8s2.5,1.3,3.5,2.4L28.3,7l-4.9,5l4.9,4.9
		l-2.6,2.7c-1.1,1.1-2.2,1.9-3.6,2.4c-1.3,0.5-2.7,0.8-4,0.8c-1.4,0-2.8-0.3-4.1-0.8s-2.5-1.3-3.5-2.4c-1.1-1.1-1.8-2.2-2.4-3.5
		c-0.5-1.3-0.8-2.7-0.8-4.1c0-1.3,0.3-2.7,0.8-4C8.6,6.7,9.4,5.5,10.5,4.4z M10.9,4.8c-1,1-1.7,2.2-2.2,3.4S8,10.7,8,12
		c0,1.4,0.2,2.7,0.7,3.9s1.2,2.3,2.2,3.3s2.1,1.7,3.4,2.2c1.2,0.5,2.5,0.7,3.8,0.7c1.3,0,2.5-0.2,3.8-0.7c1.2-0.5,2.4-1.2,3.4-2.2
		l2.2-2.2l-4.3-4.4l-2.3,2.2c-0.3,0.4-0.7,0.7-1.2,0.9S18.8,16,18.2,16c-1.1,0-2-0.4-2.8-1.2c-0.4-0.4-0.7-0.8-0.9-1.3
		s-0.3-1-0.3-1.5s0.1-0.9,0.3-1.4s0.5-0.8,0.8-1.2c0.8-0.8,1.7-1.2,2.8-1.2c1,0,1.9,0.4,2.8,1.2l0,0l2.2,2.2L27.4,7l-2.2-2.2l0,0
		c-1-1-2.1-1.8-3.4-2.3C20.6,2,19.3,1.7,18,1.7c-1.3,0-2.6,0.3-3.8,0.8C13,3.1,11.9,3.9,10.9,4.8L10.9,4.8z M11.4,5.3
		c0.9-1,1.9-1.7,3.1-2.1c1.2-0.5,2.4-0.7,3.6-0.7s2.4,0.2,3.5,0.7c1.2,0.5,2.2,1.2,3.1,2.1L26.5,7L23,10.5l-1.8-1.7
		c-0.9-0.9-2-1.3-3.2-1.3c-1.2,0-2.3,0.5-3.2,1.4c-0.4,0.4-0.8,0.9-1,1.4s-0.3,1.1-0.3,1.6c0,0.6,0.1,1.2,0.3,1.8s0.5,1.1,1,1.5
		c0.9,0.9,2,1.4,3.2,1.4c0.6,0,1.2-0.1,1.7-0.3c0.5-0.2,1-0.6,1.4-1l1.8-1.8l3.5,3.5l-1.8,1.8c-0.9,0.9-1.9,1.6-3.1,2.1
		s-2.4,0.7-3.5,0.7c-1.2,0-2.5-0.2-3.6-0.7c-1.2-0.5-2.2-1.2-3.1-2.1c-0.9-0.9-1.6-1.9-2.1-3.1s-0.7-2.4-0.7-3.6s0.2-2.4,0.7-3.5
		C9.7,7.3,10.4,6.2,11.4,5.3z M18.1,15.3c0.4,0,0.8-0.1,1.2-0.2c0.4-0.1,0.7-0.4,1-0.7l2.4-2.3l-2.4-2.4l0,0c-0.7-0.7-1.4-1-2.3-1
		c-0.9,0-1.7,0.3-2.4,1c-0.6,0.6-0.9,1.3-0.9,2.1c0,1,0.3,1.8,0.9,2.4C16.4,15,17.2,15.3,18.1,15.3z"/>
	<path class="st0" d="M43.7,1.2v7.6h-3.6c-0.8,0-1.6,0.3-2.1,0.9c-0.6,0.6-0.9,1.4-0.9,2.3v10.8h-7V12c0-1.5,0.3-2.8,0.8-4.2
		c0.5-1.3,1.3-2.5,2.2-3.4c0.9-1,2-1.8,3.2-2.3c1.2-0.6,2.5-0.9,3.9-0.9C40.2,1.2,43.7,1.2,43.7,1.2z M40.1,1.8
		c-1.3,0-2.5,0.3-3.7,0.8s-2.2,1.3-3,2.2c-0.9,0.9-1.6,2-2.1,3.2s-0.7,2.5-0.7,3.9v10.2h5.9V12c0-1.1,0.4-2,1.1-2.7
		c0.7-0.7,1.5-1.1,2.5-1.1h3V1.8H40.1z M42.5,2.5v5.1h-2.4c-1.2,0-2.2,0.4-3,1.3s-1.2,1.9-1.2,3.2v9.6h-4.8V12
		c0-1.3,0.2-2.5,0.7-3.7c0.5-1.2,1.1-2.2,1.9-3c0.8-0.9,1.8-1.6,2.9-2.1s2.2-0.7,3.5-0.7C40.1,2.5,42.5,2.5,42.5,2.5z"/>
</g>
<g class="st1">
	<path class="st0" d="M39.1,22.7V9.8h4.1c1.2,0,2.2,0.3,2.9,1c0.7,0.7,1.1,1.5,1.1,2.7c0,0.7-0.2,1.4-0.6,2c-0.4,0.6-0.9,1-1.5,1.3
		c-0.6,0.3-1.6,0.4-2.8,0.4h-1.4v5.6H39.1z M42.8,11.5h-1.9v4h2c0.7,0,1.3-0.2,1.7-0.5c0.4-0.4,0.6-0.9,0.6-1.5
		C45.3,12.1,44.5,11.5,42.8,11.5z"/>
	<path class="st0" d="M48.7,14.2v-0.5c0-1.4,0.3-2.4,0.9-3c0.6-0.7,1.3-1,2.1-1c0.3,0,0.8,0.1,1.2,0.2v1.6c-0.3-0.1-0.5-0.1-0.8-0.1
		c-0.7,0-1.1,0.2-1.4,0.5c-0.3,0.3-0.4,1-0.4,1.9v0.5h1.5v1.5h-1.5v6.9h-1.7v-6.9h-1.2v-1.5H48.7z"/>
	<path class="st0" d="M57.1,14.2c1.3,0,2.4,0.4,3.2,1.2c0.8,0.8,1.3,1.9,1.3,3.1c0,1.2-0.4,2.2-1.3,3c-0.9,0.8-1.9,1.2-3.3,1.2
		c-1.3,0-2.3-0.4-3.2-1.2c-0.8-0.8-1.3-1.8-1.3-3.1c0-1.2,0.4-2.3,1.3-3.1C54.7,14.6,55.8,14.2,57.1,14.2z M57,15.7
		c-0.8,0-1.5,0.3-2,0.8c-0.5,0.5-0.8,1.2-0.8,2c0,0.8,0.3,1.5,0.8,2c0.5,0.5,1.2,0.8,2,0.8c0.8,0,1.5-0.3,2-0.8
		c0.5-0.5,0.8-1.2,0.8-2c0-0.8-0.3-1.5-0.8-2C58.5,16,57.8,15.7,57,15.7z"/>
	<path class="st0" d="M63.5,9.8h1.7v12.8h-1.7V9.8z"/>
	<path class="st0" d="M68.4,10.7c0.3,0,0.5,0.1,0.7,0.3c0.2,0.2,0.3,0.4,0.3,0.7c0,0.3-0.1,0.5-0.3,0.7c-0.2,0.2-0.4,0.3-0.7,0.3
		c-0.3,0-0.5-0.1-0.7-0.3c-0.2-0.2-0.3-0.4-0.3-0.7c0-0.3,0.1-0.5,0.3-0.7C67.9,10.8,68.1,10.7,68.4,10.7z M67.6,14.2h1.7v8.4h-1.7
		V14.2z"/>
	<path class="st0" d="M75.7,14.2c1.3,0,2.4,0.4,3.2,1.2c0.8,0.8,1.3,1.9,1.3,3.1c0,1.2-0.4,2.2-1.3,3c-0.9,0.8-1.9,1.2-3.3,1.2
		c-1.3,0-2.3-0.4-3.2-1.2c-0.8-0.8-1.3-1.8-1.3-3.1c0-1.2,0.4-2.3,1.3-3.1C73.3,14.6,74.4,14.2,75.7,14.2z M75.6,15.7
		c-0.8,0-1.5,0.3-2,0.8c-0.5,0.5-0.8,1.2-0.8,2c0,0.8,0.3,1.5,0.8,2c0.5,0.5,1.2,0.8,2,0.8c0.8,0,1.5-0.3,2-0.8
		c0.5-0.5,0.8-1.2,0.8-2c0-0.8-0.3-1.5-0.8-2C77.1,16,76.4,15.7,75.6,15.7z"/>
</g>
<g class="st1">
	<path class="st0" d="M42.9,20.4c0.3,0,0.6,0.1,0.9,0.3c0.2,0.2,0.3,0.5,0.3,0.8c0,0.3-0.1,0.6-0.3,0.8c-0.2,0.2-0.5,0.3-0.9,0.3
		c-0.3,0-0.6-0.1-0.9-0.3c-0.2-0.2-0.3-0.5-0.3-0.8c0-0.3,0.1-0.6,0.3-0.8C42.3,20.5,42.6,20.4,42.9,20.4z M42.9,20.8
		c-0.2,0-0.4,0.1-0.5,0.2c-0.1,0.1-0.2,0.3-0.2,0.5c0,0.2,0.1,0.4,0.2,0.5c0.1,0.1,0.3,0.2,0.5,0.2c0.2,0,0.4-0.1,0.5-0.2
		c0.1-0.1,0.2-0.3,0.2-0.5c0-0.2-0.1-0.4-0.2-0.5C43.3,20.8,43.1,20.8,42.9,20.8z"/>
	<path class="st0" d="M45.1,20.4v0.5l0,0c0.2-0.4,0.4-0.5,0.7-0.5c0.2,0,0.3,0.1,0.5,0.3L46.1,21c-0.2-0.1-0.3-0.2-0.4-0.2
		c-0.1,0-0.3,0.1-0.4,0.2c-0.1,0.1-0.2,0.3-0.2,0.5v1.2h-0.5v-2.3H45.1z"/>
	<path class="st0" d="M46.4,20.7l0.8-0.8v0.5H48v0.4h-0.7v1.1c0,0.3,0.1,0.4,0.3,0.4c0.2,0,0.3-0.1,0.5-0.2v0.4
		c-0.2,0.1-0.4,0.1-0.6,0.1c-0.2,0-0.4-0.1-0.5-0.2c0,0-0.1-0.1-0.1-0.1c0,0-0.1-0.1-0.1-0.2c0-0.1,0-0.2,0-0.4v-1L46.4,20.7
		L46.4,20.7z"/>
</g>
</svg>
