<?xml version="1.0" encoding="UTF-8"?><svg id="Ebene_2" xmlns="http://www.w3.org/2000/svg" viewBox="0 0 32 23"><defs><style>.cls-1{fill:#fff;}</style></defs><g id="Icons"><g id="Mail"><path class="cls-1" d="m28,0H4C1.79,0,0,1.79,0,4v15c0,2.21,1.79,4,4,4h24c2.21,0,4-1.79,4-4V4c0-2.21-1.79-4-4-4Zm2,19c0,1.1-.9,2-2,2H4c-1.1,0-2-.9-2-2V4c0-1.1.9-2,2-2h24c1.1,0,2,.9,2,2v15Z"/><path class="cls-1" d="m26.37,5.23l-10.37,8.48L5.63,5.23c-.43-.35-1.06-.29-1.41.14-.35.43-.29,1.06.14,1.41l11,9c.18.15.41.23.63.23s.45-.08.63-.23l11-9c.43-.35.49-.98.14-1.41-.35-.43-.98-.49-1.41-.14Z"/></g></g></svg>