<?xml version="1.0" encoding="UTF-8"?><svg id="Ebene_2" xmlns="http://www.w3.org/2000/svg" viewBox="0 0 181.49 157.29"><defs><style>.cls-1{fill:#fff;}</style></defs><g id="Layer_1"><path class="cls-1" d="m30.25,157.29H6.05c-3.34,0-6.05-2.71-6.05-6.05v-60.5c0-3.34,2.71-6.05,6.05-6.05h24.2c3.34,0,6.05,2.71,6.05,6.05v60.5c0,3.34-2.71,6.05-6.05,6.05Zm-18.15-12.1h12.1v-48.4h-12.1v48.4Z"/><path class="cls-1" d="m78.64,157.29h-24.2c-3.34,0-6.05-2.71-6.05-6.05v-84.69c0-3.34,2.71-6.05,6.05-6.05h24.2c3.34,0,6.05,2.71,6.05,6.05v84.69c0,3.34-2.71,6.05-6.05,6.05Zm-18.15-12.1h12.1v-72.59h-12.1v72.59Z"/><path class="cls-1" d="m127.04,157.29h-24.2c-3.34,0-6.05-2.71-6.05-6.05v-72.59c0-3.34,2.71-6.05,6.05-6.05h24.2c3.34,0,6.05,2.71,6.05,6.05v72.59c0,3.34-2.71,6.05-6.05,6.05Zm-18.15-12.1h12.1v-60.5h-12.1v60.5Z"/><path class="cls-1" d="m175.44,157.29h-24.2c-3.34,0-6.05-2.71-6.05-6.05V42.35c0-3.34,2.71-6.05,6.05-6.05h24.2c3.34,0,6.05,2.71,6.05,6.05v108.89c0,3.34-2.71,6.05-6.05,6.05Zm-18.15-12.1h12.1V48.4h-12.1v96.79Z"/><path class="cls-1" d="m18.15,60.5c-2.22,0-4.35-1.22-5.42-3.34-1.49-2.99-.28-6.62,2.71-8.12l48.4-24.2c1.29-.65,2.78-.82,4.17-.46l45.61,11.4L159.71,1.21c2.67-2.01,6.46-1.46,8.47,1.21,2.01,2.67,1.47,6.47-1.21,8.47l-48.4,36.3c-1.46,1.1-3.33,1.47-5.09,1.03l-46.23-11.56-46.39,23.2c-.87.43-1.79.64-2.7.64Z"/></g></svg>