<?xml version="1.0" encoding="UTF-8"?><svg id="Ebene_2" xmlns="http://www.w3.org/2000/svg" viewBox="0 0 22 32"><defs><style>.cls-1{fill:#fff;}</style></defs><g id="Icons"><g id="Smartphone"><path class="cls-1" d="m18,0H4C1.79,0,0,1.79,0,4v24c0,2.21,1.79,4,4,4h14c2.21,0,4-1.79,4-4V4c0-2.21-1.79-4-4-4Zm2,28c0,1.1-.9,2-2,2H4c-1.1,0-2-.9-2-2V4c0-1.1.9-2,2-2h14c1.1,0,2,.9,2,2v24Z"/><path class="cls-1" d="m18,6H4c-.55,0-1,.45-1,1s.45,1,1,1h14c.55,0,1-.45,1-1s-.45-1-1-1Z"/><path class="cls-1" d="m18,23H4c-.55,0-1,.45-1,1s.45,1,1,1h14c.55,0,1-.45,1-1s-.45-1-1-1Z"/><path class="cls-1" d="m9,5h4c.55,0,1-.45,1-1s-.45-1-1-1h-4c-.55,0-1,.45-1,1s.45,1,1,1Z"/><circle class="cls-1" cx="11" cy="27.5" r="1.5"/></g></g></svg>