<?xml version="1.0" encoding="UTF-8"?><svg id="Ebene_2" xmlns="http://www.w3.org/2000/svg" viewBox="0 0 169.39 181.49"><defs><style>.cls-1{fill:#fff;}</style></defs><g id="Layer_1"><path class="cls-1" d="m157.25,71.89c-.36-3.05-2.94-5.34-6.01-5.34h-18.15v-18.15C133.09,21.71,111.38,0,84.69,0s-48.4,21.71-48.4,48.4v18.15h-18.15c-3.07,0-5.65,2.3-6.01,5.34L.04,174.73c-.2,1.72.34,3.44,1.49,4.73,1.15,1.29,2.79,2.03,4.52,2.03h157.29c1.73,0,3.37-.74,4.52-2.03,1.15-1.29,1.69-3.01,1.49-4.73l-12.1-102.84Zm-108.85-23.49c0-20.02,16.28-36.3,36.3-36.3s36.3,16.28,36.3,36.3v18.15H48.4v-18.15ZM12.86,169.39l10.68-90.74h12.77v12.1c0,3.34,2.71,6.05,6.05,6.05s6.05-2.71,6.05-6.05v-12.1h72.59v12.1c0,3.34,2.71,6.05,6.05,6.05s6.05-2.71,6.05-6.05v-12.1h12.77l10.68,90.74H12.86Z"/><path class="cls-1" d="m133.09,157.29H36.3c-3.34,0-6.05-2.71-6.05-6.05s2.71-6.05,6.05-6.05h96.79c3.34,0,6.05,2.71,6.05,6.05s-2.71,6.05-6.05,6.05Z"/></g></svg>