<?xml version="1.0" encoding="UTF-8"?><svg id="Ebene_2" xmlns="http://www.w3.org/2000/svg" viewBox="0 0 20.29 20.81"><defs><style>.cls-1{fill:#fff;}</style></defs><g id="Object"><path class="cls-1" d="m12.44,15.56c.11.11.3.11.41,0,.64-.7,2.43-2.84,2.43-5.09,0-1.31-.38-5.6-5.31-5.6-3.67,0-5.38,1.71-5.38,5.38,0,2.56,2,4.61,2.66,5.21.06.06.1.14.1.23v2.13c0,.16.13.3.3.3h4.66v2.13h-4.46c-.16,0-.28.13-.28.28h0c0,.16.13.28.28.28h4.73c.16,0,.3-.13.3-.3v-2.66c0-.16-.13-.3-.3-.3h-2.21v-4.52c.07,0,2.3-2.23,2.3-2.23.11-.11.11-.29,0-.4-.11-.11-.29-.11-.4,0l-2.15,2.15s0,0,0,0l-2.78-2.66c-.11-.11-.29-.1-.4,0h0c-.11.11-.11.3,0,.4l2.73,2.62c.06.05.09.13.09.21v4.43h-1.84v-2.26l-.1-.08s-2.66-2.21-2.66-4.95c0-3.33,1.49-4.82,4.82-4.82,4.28,0,4.75,3.52,4.75,5.03,0,2.06-1.68,4.06-2.28,4.71-.1.11-.1.28,0,.39Z"/><path class="cls-1" d="m9.97,2.6c.16,0,.28-.13.28-.28V.33c0-.16-.13-.28-.28-.28s-.28.13-.28.28v1.98c0,.16.13.28.28.28Z"/><path class="cls-1" d="m20.2.08c-.11-.11-.29-.11-.4,0l-4.59,4.59c-.11.11-.11.29,0,.4.11.11.29.11.4,0L20.2.48c.11-.11.11-.29,0-.4Z"/><path class="cls-1" d="m5.08,5.08c.11-.11.11-.29,0-.4L.48.08C.37-.03.19-.03.08.08-.03.19-.03.37.08.48l4.59,4.59c.11.11.29.11.4,0Z"/></g></svg>