<?xml version="1.0" encoding="UTF-8"?><svg id="Ebene_2" xmlns="http://www.w3.org/2000/svg" viewBox="0 0 181.49 181.48"><defs><style>.cls-1{fill:#fff;}</style></defs><g id="Layer_1"><path class="cls-1" d="m108.89,48.39v-6.05c0-10.01-8.14-18.15-18.15-18.15s-18.15,8.14-18.15,18.15v6.05c-3.34,0-6.05,2.71-6.05,6.05v24.2c0,3.34,2.71,6.05,6.05,6.05h36.3c3.34,0,6.05-2.71,6.05-6.05v-24.2c0-3.34-2.71-6.05-6.05-6.05Zm-24.2-6.05c0-3.34,2.71-6.05,6.05-6.05s6.05,2.71,6.05,6.05v6.05h-12.1v-6.05Zm18.15,30.25h-24.2v-12.1h24.2v12.1Z"/><path class="cls-1" d="m175.44,0H6.05C2.71,0,0,2.71,0,6.05v120.99c0,3.34,2.71,6.05,6.05,6.05h60.5v12.1h-12.1c-3.34,0-6.05,2.71-6.05,6.05v24.2c0,3.34,2.71,6.05,6.05,6.05h72.59c3.34,0,6.05-2.71,6.05-6.05v-24.2c0-3.34-2.71-6.05-6.05-6.05h-12.1v-12.1h60.5c3.34,0,6.05-2.71,6.05-6.05V6.05c0-3.34-2.71-6.05-6.05-6.05ZM12.1,12.1h157.29v84.69H12.1V12.1Zm108.89,157.29h-60.5v-12.1h60.5v12.1Zm-18.15-24.2h-24.2v-12.1h24.2v12.1Zm66.55-24.2H12.1v-12.1h157.29v12.1Z"/></g></svg>